<svg xmlns="http://www.w3.org/2000/svg" width="147" height="48" fill="none">
  <path fill="#fff"  d="M3.904 34.638c-.954-.487-1.441-.873-1.441-1.624 0-.751.304-1.178 1.137-1.178.832 0 1.38.772 1.563 1.503v.06l.487-.1v-.062c-.081-.67-.142-1.116-.183-1.522v-.183h-.06c-.061 0-.122-.04-.183-.04-.305-.062-.833-.183-1.38-.183-1.24 0-2.498.71-2.498 2.09 0 1.381.69 1.686 1.949 2.376.974.528 1.441.873 1.441 1.726 0 .852-.507 1.238-1.258 1.238-1.137 0-1.665-.974-1.909-1.786v-.061l-.487.121v.061c.081.59.223 1.483.325 1.807 0 .02.04.04.04.04.508.184 1.117.387 1.828.387 1.543 0 2.66-.955 2.66-2.254 0-1.3-.691-1.705-2.031-2.416ZM8.796 36.77l.121-.061c.244-.102.569-.264.792-.366v1.706a1.271 1.271 0 0 1-.812.345.79.79 0 0 1-.751-.832c0-.61.264-.61.65-.792Zm2.74 1.441a.774.774 0 0 1-.385.122c-.285 0-.345-.345-.345-.65v-2.192c0-.63-.183-1.056-.63-1.401-.284-.223-.65-.325-1.056-.325-.73.163-1.441.63-1.725.812-.244.183-.406.325-.406.528 0 .325.324.589.609.589.284 0 .365-.102.426-.345.102-.325.183-.569.284-.731.142-.163.285-.244.488-.244.568 0 .913.447.913 1.178v.243c-.264.203-1.035.467-1.665.69l-.142.041c-.67.244-.974.63-.974 1.218 0 .59.568 1.503 1.502 1.503s.792-.325 1.218-.63c.04-.02.081-.06.122-.08.061.162.122.304.264.446.122.142.386.244.63.244l1.096-.63-.163-.447-.06.041v.02ZM17.1 37.724v-3.938h-.062c-.345.08-1.157.182-1.888.223h-.06v.426l.405.061c.346.061.468.102.468.69v2.7c-.346.325-.711.488-1.117.488s-.954-.163-.954-1.198v-1.604c0-.751 0-1.32.04-1.705v-.081h-.06c-.366.06-1.198.182-1.747.203h-.06v.406l.365.08c.244.062.345.082.345.691v2.274c0 1.604 1.056 1.787 1.523 1.787.467 0 1.116-.346 1.685-.813v.833h.081a11.71 11.71 0 0 1 1.848-.426h.04v-.447h-.365c-.386-.04-.467-.081-.467-.65M22.5 34.882v3.147c-.243.182-.628.345-.994.345-.73 0-1.523-.751-1.523-2.091 0-1.34 1.178-1.97 1.421-1.97.468 0 .894.203 1.097.549m1.137 2.822v-7.025h-.081c-.467.183-1.3.345-1.889.426h-.06v.427h.06c.772.081.833.081.833.771v1.563c-.284-.08-.63-.08-.67-.08-1.706 0-3.106 1.299-3.106 2.882 0 1.584 1.32 2.62 2.253 2.62.934 0 .386-.041.893-.326.102-.06.224-.142.366-.223.081-.06.183-.101.264-.162v.71h.081c.63-.243 1.38-.365 1.746-.426.06 0 .102 0 .122-.02h.04v-.447h-.406c-.385-.061-.466-.102-.466-.69M26.703 37.785v-4.08l-.081.04a7.153 7.153 0 0 1-1.726.447h-.04v.406h.04c.65.101.65.142.65.832v2.376c0 .771-.061.812-.731.873h-.061v.446h2.74v-.447h-.06c-.69-.08-.772-.101-.772-.872M26.074 32.77a.72.72 0 0 0 .71-.71c0-.386-.304-.731-.69-.731a.741.741 0 0 0-.73.73c0 .407.324.711.71.711ZM36.306 37.014c-.63 1.238-1.238 1.685-2.294 1.685-1.766 0-2.924-1.422-2.924-3.594 0-2.172 1.076-3.269 2.802-3.269s.893.082 1.157.203c.528.224.833.63 1.097 1.483v.06l.507-.101v-.061a24.658 24.658 0 0 1-.223-1.827v-.04h-.04c-.082 0-.183-.041-.326-.062-.446-.08-1.096-.223-1.888-.223-2.639 0-4.486 1.685-4.486 4.06 0 2.376 1.32 3.939 4.283 3.939 2.964 0 1.645-.183 2.05-.264h.123v-.06c.182-.366.467-1.199.65-1.787v-.061l-.447-.163v.04h-.02l-.021.041ZM39.005 35.654c.142-.813.589-1.34 1.097-1.34.507 0 .446.08.609.264.203.223.325.527.325.852 0 .122-.02.183-.224.183-.63.02-1.238.04-1.807.04Zm1.36-1.909c-.65 0-1.279.325-1.786.853-.508.528-.792 1.279-.792 2.09 0 1.28.812 2.559 2.355 2.559s1.137-.06 2.01-1.178v-.04c.02 0-.223-.366-.223-.366l-.04.041c-.427.386-.854.569-1.3.569a1.44 1.44 0 0 1-1.096-.468c-.366-.365-.549-.893-.549-1.563 1.26-.04 2.782-.142 3.046-.203.223-.06.243-.223.264-.446a1.98 1.98 0 0 0-.549-1.34 1.765 1.765 0 0 0-1.299-.548M48.55 37.826v-2.213c0-1.158-.609-1.868-1.563-1.868s-.69.162-.975.345c-.264.183-.507.345-.69.467v-.873l-.081.04c-.467.204-1.056.366-1.706.468h-.04v.426h.04c.59.101.65.122.65.832v2.396c0 .751-.06.751-.751.832h-.061v.447h2.66v-.447h-.061c-.63-.08-.65-.08-.65-.832v-2.7c.406-.345.792-.528 1.157-.528.63 0 .955.426.955 1.259v1.928c0 .792-.061.812-.65.873h-.061v.447h2.558v-.447h-.06c-.63-.08-.67-.08-.67-.832M52.872 38.272a1.611 1.611 0 0 1-.65.163c-.406 0-.608-.345-.608-1.036v-2.883h1.197a.552.552 0 0 0 .163-.324c0-.102 0-.224-.081-.285h-1.26c0-.568 0-1.218.041-1.685v-.04l-.243-.061c-.122.142-.284.264-.427.406-.162.142-.324.284-.446.406v.954h-.487l-.366.406.081.203h.772v3.29c0 .953.426 1.46 1.238 1.46s.305-.04.508-.162l.832-.426-.142-.426h-.06v.02l-.062.02ZM57.585 33.745c-.528 0-.995.507-1.401 1.117v-1.178l-.081.04a7.244 7.244 0 0 1-1.706.468h-.04v.406h.06c.61.08.65.08.65.812v2.436c0 .73-.06.751-.73.812h-.062v.447h2.843v-.447h-.061c-.853-.081-.894-.102-.894-.832v-2.173c.244-.568.65-.832.833-.832.183 0 .304.101.487.284a.31.31 0 0 0 .366.04c.223-.121.467-.405.467-.75 0-.346-.264-.65-.752-.65M60.892 36.77l.122-.061c.244-.102.569-.264.792-.366v1.706a1.271 1.271 0 0 1-.812.345.79.79 0 0 1-.751-.832c0-.61.264-.61.65-.792Zm2.761 1.441a.773.773 0 0 1-.385.122c-.284 0-.345-.345-.345-.65v-2.192c0-.63-.183-1.056-.63-1.401-.284-.223-.65-.325-1.055-.325-.731.163-1.442.63-1.726.812-.244.183-.406.325-.406.528 0 .325.325.589.589.589.264 0 .365-.102.426-.325.101-.345.183-.589.304-.73.143-.163.285-.245.488-.245.568 0 .913.447.913 1.178v.244c-.264.203-1.035.467-1.665.69l-.142.04c-.67.244-.974.63-.974 1.219 0 .588.568 1.502 1.502 1.502s.792-.325 1.218-.63c.041-.02.082-.06.122-.08.061.162.122.304.264.446.122.142.386.244.63.244l1.096-.63-.163-.446-.06.04ZM65.989 37.826v-7.167h-.081c-.386.163-1.137.345-1.787.426h-.06v.427h.04c.69.101.73.142.73.812v5.502c0 .73-.06.771-.75.832h-.062v.447h2.741v-.447h-.06c-.711-.081-.752-.122-.752-.832M71.692 34.76h-.508v-2.152c0-.325.02-.447.102-.508.101-.081.305-.101.609-.101.934 0 1.502.507 1.502 1.38 0 .873-.528 1.38-1.685 1.38m.447 3.797c-.406 0-.63-.06-.772-.203-.142-.142-.203-.385-.203-.812v-2.274h.467c1.422 0 2.132.528 2.132 1.624 0 1.097-.873 1.645-1.644 1.645m1.157-3.593c.71-.224 1.38-.792 1.38-1.726 0-.934-.243-1.036-.71-1.34-.426-.284-1.015-.406-1.827-.406H68.95v.447h.061c.914.08.975.162.975 1.075v4.61c0 .913-.061.974-.975 1.055h-.06v.467h2.984c.873 0 1.482-.142 2.07-.467.731-.406 1.158-1.076 1.158-1.827 0-.752-.65-1.604-1.848-1.868M78.19 36.77l.121-.061c.244-.102.569-.264.792-.366v1.706a1.271 1.271 0 0 1-.812.345.79.79 0 0 1-.751-.832c0-.61.264-.61.65-.792Zm2.76 1.441a.773.773 0 0 1-.385.122c-.285 0-.346-.345-.346-.65v-2.192c0-.63-.182-1.056-.629-1.401-.284-.223-.65-.325-1.056-.325-.73.163-1.441.63-1.725.812-.244.183-.406.325-.406.528 0 .325.325.589.609.589s.365-.102.426-.345c.102-.325.183-.569.284-.731.143-.163.285-.244.488-.244.568 0 .913.447.913 1.178v.243c-.264.203-1.035.467-1.665.69l-.142.041c-.67.244-.974.63-.974 1.218 0 .59.568 1.503 1.502 1.503s.792-.325 1.218-.63c.04-.02.082-.06.122-.08.061.162.122.304.264.446.122.142.386.244.63.244l1.096-.63-.163-.447-.06.041v.02ZM86.534 37.826v-2.213c0-1.158-.609-1.868-1.563-1.868s-.69.162-.974.345c-.264.183-.508.345-.69.467v-.873l-.082.04c-.467.204-1.055.366-1.705.468h-.04v.426h.04c.589.101.65.122.65.832v2.396c0 .751-.061.751-.752.832h-.06v.447h2.659v-.447h-.06c-.63-.08-.65-.08-.65-.832v-2.7c.406-.345.791-.528 1.157-.528.629 0 .954.426.954 1.259v1.928c0 .792-.061.812-.65.873h-.06v.447h2.557v-.447h-.06c-.63-.08-.67-.08-.67-.832M93.599 38.658c-.426-.04-.589-.06-1.096-.589-.346-.365-1.462-1.685-1.746-2.09.264-.326.71-.833.913-1.036.487-.508.731-.589 1.503-.71h.04v-.447l-2.517.101v.447h.06c.183 0 .427.06.468.142.04.081 0 .122-.102.243-.183.285-.609.792-.873 1.056a1.431 1.431 0 0 1-.63.386v-5.502h-.08a7.187 7.187 0 0 1-1.787.426h-.061v.406h.04c.67.122.732.122.732.813v5.502c0 .71-.041.77-.752.832h-.06v.447h2.72v-.447h-.061c-.71-.081-.73-.102-.73-.832v-1.239h.12c.082 0 .123.04.285.223.04.061 1.015 1.239 1.523 1.889.203.223.325.405.345.426h.02c.264 0 .954-.02 1.665-.02h.061v-.447h-.06l.06.02ZM39.007 9.565c.06-.244.507-.366.426.223-.102.061-.366-.101-.426-.223Zm.284.751c-.081.102-.163.162-.244.264-.101.101-.142.162-.264.264-.203.183-.386.325-.589.487-.182.142-1.157.853-1.197.975.324-.061 1.238-.63 1.482-.812.243-.183.771-.69.934-.955.04-.08.04-.08.101-.162.142.081.183.081.305.183 0 0 .162-.305.162-.406 0-.143-.183-.203-.325-.264 0-.264.122-.589-.02-.853-.224-.447-.975.264-.893.792.02.162.142.223.223.304.04.041.101.082.162.102.02 0 .061 0 .081.04l.082.061v-.02Zm-.447 1.604c-.06.04-.02 0-.06.081-.062.122-.062.548-.285.71-.102.082-.325.143-.406 0-.081-.141 0-.365 0-.527-.325.162-.508 1.421.304 1.015.813-.406.122-.081.203-.142.122-.081.143-.04.285-.04.75 0 1.055-1.138.75-1.462-.08.06-.222.304-.202.426.06.162.264.386-.244.548-.04 0-.101.02-.142.02-.122 0-.081 0-.122-.06-.08-.183.082-.447-.08-.569Zm14.009.853c.182-.163.487-.873.264-1.158-.244-.304-.934-.121-1.26 0-.69.264-1.502.792-2.01 1.178-.486.345-1.339 1.015-1.745 1.482-.508.61-1.95 2.538-.345 2.984 1.177.325 3.268.082 4.446-.02 1.929-.203 3.878-.406 5.827-.568 1.116-.081 2.517-.142 3.268.65.041.04.366.385.305.446-.04.081-1.218.162-1.38.183-2.883.345-5.685.75-8.548 1.076-1.34.142-4.73.345-5.908-.163a2.859 2.859 0 0 1-1.279-1.116c-.081-.122-.223-.447-.264-.488-.101.041-.142.122-.182.264-.163.549-.163.69 0 1.056.182.366.385.812.487 1.238.142.61.101.67-.427 1.158l-.974.751c-.731.508-2.822 1.787-3.675.873-.284-.305-.548-.69-.528-1.178.224-.06.508-.243.71-.345.508-.243 1.483-.873 1.91-1.259.324-.304.69-.71.69-1.4s-.386-.894-1.036-1.076c-.548-.163-1.137-.224-1.624-.467-.244-.122-.508-.244-.345-.61.264-.568.913-1.36 1.38-1.745 1.016-.812 1.097.06 1.239.182.162-.04.284-.345.304-.568.061-.508-.142-1.096-.69-1.015-.325.04-.609.284-.832.446a2.235 2.235 0 0 0-.224.204 5.498 5.498 0 0 0-1.116 1.44 4.044 4.044 0 0 0-.467 1.26c-.122.67-.081.994.325 1.32.588.466 2.172.466 2.578.852.081.162-.447.467-.548.548-.224.142-.427.264-.67.406-.284.183-1.137.65-1.462.731.04-.264.244-.792.223-1.015-.223.102-.365.975-.446 1.096-.061.082-.447.203-.548.224-1.117.385-2.762.629-3.513-.386-1.197-1.604.244-3.614.285-4.142-.102 0-.143.081-.204.163a.962.962 0 0 0-.142.243c-1.055 1.767-1.38 5.34 1.442 5.523 1.096.08 1.685-.285 2.517-.528-.06 1.055.264 1.969 1.015 2.273.934.407 2.315-.324 3.066-.812.772-.507 1.665-1.197 2.091-2.03.264-.548.163-.792.224-1.4.162.06.324.162.507.243.183.081.366.142.548.203 1.097.284 3.046.264 4.162.162 1.787-.162 3.553-.406 5.32-.65 1.969-.263 3.979-.547 5.907-.791.325-.04.325-.061.467-.284.752-1.218-.101-2.213-1.238-2.62-.914-.324-1.685-.284-2.68-.202-.893.06-1.827.162-2.7.264-1.807.223-5.157.65-6.883.365-.223-.04-1.076-.183-.913-.528.101-.243 1.177-1.198 1.522-1.462.549-.426 1.076-.832 1.767-1.218 1.949-1.096 1.725-.365 2.05-.284m-35.305 5.543c-.244.04-.528.08-.792.04-.203-.04-.508-.223-.305-.426.224-.244.792-.122 1.097.386ZM1.224 15.92l-.04.345c-.082.629.162.954.446.873a1.862 1.862 0 0 0-.183.467 5.546 5.546 0 0 0-.325 1.746c-.04 1.197.285 2.274 1.462 2.72 1.523.589 4.122-.63 5.4-1.563.102-.081.204-.122.305-.223.061-.041.102-.082.142-.122l.163-.122c-.061.284-.163.568-.224.873-.142.792-.223 2.152.65 2.416.63.183 1.218-.223 1.645-.447.284-.142 1.136-.73 1.32-.812.06.102.121.426.223.589.812 1.523 2.639.832 3.715.06.67-.507 1.543-1.238 2.05-1.887.366-.467.61-1.097.63-1.706.182-.101.609-.264.832-.365l2.193-.954c-.224.65-.528 1.725-.325 2.395.081.224.223.427.386.528.629.406 1.543.102 2.09-.345.387-.325.732-.934.955-.893.101.264-.04.63.386.995.243.223.771.264 1.137.182.365-.081.67-.325.893-.507.568-.549.386-.467.609-.71.06-.062 0 0 .081-.062.082.69.406 1.28 1.218 1.137.346-.06.569-.264.731-.467.081-.122.163-.223.224-.365.06-.122.121-.285.203-.386.162.203.223.73.73.975.528.243.934.04 1.239-.244.548-.487.853-1.584.873-2.558 0-1.3-.223-4.183-.345-5.726 0-.223-.061-.588-.04-.812.141.061.222.325.486.366.041-.305-.264-.954-.365-1.239-.081-.223-.365-1.055-.487-1.177-.122.06-.224.467-.285.609-.162.426-.04.345.02.71.041.204.082 1.381.102 1.706.061 1.137.163 2.335.244 3.472.04.65.264 2.923.081 3.41-.06.163-.345.305-.507.386-.447.203-1.036.163-1.26-.325-.141-.325 0-.588-.08-.771-.183 0-.203.162-.305.304-.223.366-.487.792-.954.975-.406.162-.71.101-.934-.162-.406-.528 0-.731-.122-.975-.243.02-.771 1.056-1.685 1.32-.406.121-.913.101-1.238-.102-.569-.365-.142-.974-.285-1.096-.223-.203-.893.995-1.806 1.32-.386.142-.955.223-1.36.08-.833-.304-.163-1.563-.062-2.09l1.604-.69c.264-.123.61-.224.731-.427.102-.162.386-.63.366-.792-.264 0-1.99.833-2.6.975-.852.182-1.38-.082-2.009-.549-.406-.304-.995-1.096-1.056-1.624 0-.223.264-.345.467-.426.853-.365 2.152-.508 3.086-.365.223.04.548.142.751.142-.04-.122-.08-.143-.182-.224a4.848 4.848 0 0 0-.69-.426c-.752-.345-1.726-.467-2.498-.162-1.604.629-1.827 2.476-.63 3.816.123.142.61.548.854.63-.02.02 0 0-.061.04-.102.061-.224.102-.325.142-.122.061-.264.102-.386.163-.264.101-.528.244-.812.284-.061-.203-.284-.528-.406-.69-1.3-1.888-2.822 1.015-1.827 1.644.507.305 1.258.224 1.827.102.101.548 0 .528-.264.852-.142.183-.406.467-.61.61l-.649.548c-.71.528-1.522 1.096-2.436 1.238-.792.122-1.482-.162-1.726-.69.02-.04 0 0 .061-.061l.04-.04 1.138-.813c.446-.345.73-.588.852-1.259.082-.405.061-.873-.08-1.238-.143-.345-.407-.508-.732-.69-.304-.163-.63-.305-.954-.467-.406-.203-1.502-.772-1.705-1.117.203 0 .487.04.609-.081-.04-.203-.569-.386-.772-.487-.142-.081-.284-.122-.426-.203-.081-.04-.142-.082-.203-.102-.264-.142-.203.122-.203.325 0 .772-.061.528.304.833.163.121.224.263.345.405.224.285.488.528.792.752.082.06.142.101.224.162.06.04.142.102.223.142.325.183.65.345.995.508.264.122 1.746.751 1.32 1.177-.163.163-1.726 1.26-1.99 1.38 0-.69.365-1.44.365-1.928-.101.04-.101.102-.162.224-.04.08-.061.162-.102.243-.06.162-.122.345-.162.508-.102.385-.162.73-.203 1.137-.102.04-.264.162-.386.223-.386.223-.792.487-1.198.67-.548.244-1.4.609-1.746-.122-.142-.304-.08-.751-.02-1.076.04-.183.183-.893.244-.995.04-.06.08-.081.142-.162.04-.061.08-.102.142-.183.243-.406.406-1.015.183-1.462-.285-.629-1.909-.65-2.66-1.076-.386-.223-.345-.406-.122-.792.284-.527.67-.994 1.117-1.38.06-.06.081-.102.162-.142.081-.04.102-.081.183-.122.101-.081.264-.162.426-.203.488-.101.488.406.65.508.162-.061.284-.346.304-.569.041-.264 0-.548-.121-.751-.772-1.117-2.944 1.462-3.228 3.147-.102.65-.061.974.365 1.279.548.406 2.558.568 2.578.893-.101.325-1.867 1.28-2.355 1.503-.852.385-1.928.812-3.025.791-1.137-.02-1.888-.73-2.03-1.786-.203-1.36.65-2.558.71-3.066.041-.142.082-.305.122-.487-.121.081-.101.101-.223.284-.081.122-.122.223-.264.264-.386.102-.345-.487-.304-.812.08-.751.507-1.462.69-2.112l-.162.224c-.346.588-.752 1.563-.833 2.253M72.1 19.92c-.71 0-1.258 0-1.888-.386-.264-.162-.771-.588-.771-1.055 0-1.056.467-1.483.426-1.889-.162.061-.386.61-.467.833-.203.528-.223.873-.223 1.421 0 1.3 1.055 2.172 2.355 2.172h.365c1.38 0 2.843-.852 3.898-1.502.224-.142.406-.325.61-.487.69-.528.71-1.178.832-1.36.08.893.08 2.66 1.42 2.66 1.34 0 .57 0 .874-.245.203-.162.304-.243.447-.466.142-.203.568-.995.69-1.097.223.203.142.873 1.279 1.462 1.421.73 3.492.508 4.974.04.426-.142 1.096-.365 1.502-.568.142-.06.345-.223.487-.203.082.386.082.528.325.772.224.223.549.284.934.284.569 0 1.036-.61 1.218-1.015.549-1.28.406-2.477.305-3.858l-.203-2.883c-.04-.426-.142-1.197-.081-1.604.08.041.487.59.487.244 0-.345-.731-2.193-.873-2.314-.102.06-.345.71-.365.852 0 .142.08.345.101.508.04.183.04.365.04.568 0 1.117.204 3.431.305 4.609.04.386.061.751.081 1.137.041.69.081.974.081 1.665 0 .69-.04.548-.304.71-.426.285-1.198.427-1.502 0-.183-.243 0-.568-.061-.812-.122 0-.812.345-.995.406-1.137.447-2.254.731-3.533.792-.832.04-1.888.02-2.558-.304-.487-.244-.974-.508-1.137-1.016-.06-.203-.04-.487-.101-.609-.183-.04-.203.081-.284.203-.63.853-.914 1.625-1.99 1.625s-.934-1.239-.995-2.071c-.06-.975-.06-1.97-.101-2.944-.041-.975-.082-1.888-.224-2.822-.101-.65-.325-2.01-.548-2.518-.122.061-.122.163-.162.366-.142.75-.122.65 0 1.38.345 2.173.406 3.614.446 5.868 0 .791-.121.974-.609 1.482-.223.243-.974.71-1.238.852-.792.427-2.112 1.056-3.188 1.056m-4.994-1.97c.223-.04.447-.08.65 0 .182.062.345.143.325.346-.183.162-.711.081-.975-.325m-.975-.71c-.243.243-1.684.933-2.253.527-.223-.162-.223-.446-.406-.609-.122.102-.203.508-.264.71-.081.305.102.529.203.772.122.285.487 1.32.345 1.625-.02.06-.182.223-.223.284l-.832.69c-.772.589-1.625 1.178-2.579 1.462-.69.203-1.137.162-1.543-.244-.345-.345-.548-.873-.467-1.522.061-.569.345-1.482.345-1.685-.101.04-.121.121-.203.304-.365.893-.609 2.152-.304 3.066.812 2.558 3.877.507 5.136-.61.934-.832 1.015-1.705 1.015-3.065.447.081.914-.061 1.26-.203.425-.163.811-.426 1.014-.508.305.873 1.807 1.909 2.213.508.183-.589 0-1.28-.304-1.624-.305-.325-.752-.305-1.198-.203-.142.04-.284.101-.406.122-.366-.549-.63-5.218-.63-6.213.102.04.061 0 .122.101.04.041.061.082.102.102.06.081.142.162.243.162.082-.223-.588-1.847-.771-2.273-.04-.082-.02-.082-.081-.122-.122.081-.346.771-.366.873 0 .122.081.325.102.487.04.183.04.386.04.569.02 1.603.183 3.938.467 5.522.061.284.122.771.203 1.015m27.002 1.807c0 .507-.08 1.116-.06 1.482.162-.081.365-.792.426-1.056.264-1.137.142-2.132.06-3.289l-.243-3.43c0-.306-.122-1.544-.102-1.747.143.061.488.569.488.305 0-.264-.305-.955-.386-1.198-.081-.224-.366-1.056-.487-1.137-.122.081-.386.792-.366.995.02.203.102.304.142.568 0 .223 0 .447.02.67.062.893.123 1.746.163 2.62l.183 2.578c.04.67.162 2.03.162 2.639ZM35.11 9.768c0 .06.101.345.121.467l.102 1.726c.04.771.101 1.543.162 2.294.061.771.102 1.522.163 2.314.06.751.162 1.827.142 2.558 0 .386-.081.894-.061 1.239.101-.04.101-.081.162-.224.61-1.42.427-2.639.325-4.121l-.244-3.431c-.02-.345-.142-1.482-.101-1.726.142.04.244.366.487.366 0-.346-.446-1.421-.609-1.848-.06-.162-.162-.487-.264-.568-.101.08-.365.75-.365.934m35.63 7.633c0 .528-.081 1.28-.06 1.584.324-.163.588-1.787.588-2.274l-.365-5.867c.182.08.284.365.487.365.081-.203-.467-1.502-.589-1.827-.06-.142-.162-.508-.264-.589-.122.081-.304.63-.365.833-.04.182.06.304.101.487.04.162.04.365.04.548.021 1.238.204 3.187.285 4.487.061.73.142 1.563.142 2.274m-17.297-3.046c.142-.04.365-.203.507-.284.163-.101.345-.183.508-.284 1.137-.65 4.06-2.193 5.116-2.66.508-.223 1.056-.507 1.584-.751.162-.06.142-.04.162-.223 0-.122.04-.224.06-.366-.304.061-3.714 1.746-4.222 2.01-.751.386-2.883 1.523-3.492 1.95-.122.08-.183.385-.203.588m29.723 3.675 1.563-.873.792-.427c.223-.121.568-.324.812-.406-.244.548-.487.954-.467 1.685 0 .752.69.69.812-.324-.122.04-.244.548-.508.304-.264-.264.061-1.177.163-1.502.08-.244 0-.163.528-.447.223-.122 2.334-1.157 2.558-1.218l.08-.427c-.182.041-1.46.65-1.704.792-1.381.67-2.356 1.198-3.675 1.929a3.766 3.766 0 0 1-.386.223c-.365.183-.487.203-.568.69Zm-9.685-.914c-.101.203-.527.365-.771.487-.102.061-.792.345-.812.467.345.061.853-.081 1.177-.162.386-.081.447-.183.731-.65.873-1.36-.406-.812-.913-1.177 0-.203.284-.447.446-.528.224-.142.163.081.305.081.122 0 .203-.162.243-.244.346-.812-.243-1.137-1.136.203-.224.345-.63 1.137-.102 1.38.284.143.63.062.832.143Zm11.268-6.152c-.06-.101-.06-.284-.101-.385-.102-.345-.325-.792-.731-.792-.102.183-.386.447 0 .67.182.101.162 0 .284-.02.122.101.406.812.447 1.076a.416.416 0 0 0-.183.284c-.04.122-.081.304-.04.406.04-.04.162-.203.182-.223.06-.041.081-.041.162 0 .02 0 .041 0 .061.04.061.04.02 0 .061.061-.142.081-.467.102-.568.508-.081.284.02.65.081.934.06.304.122.588.162.893.02.183.041.934.082 1.015.162-.223.101-1.076.06-1.38a7.874 7.874 0 0 0-.284-1.239c.142-.203.549-.284.792-.345.142-.04.142-.061.203-.183.102-.244.061-.345-.101-.487-.285-.244-.386-.244-.488-.305.163-.528.142-.548.244-.974.223-.812.386-.345.548-.284.345-.224-.122-1.016-.467-.467-.264.446-.243 1.035-.365 1.218m-10.74-.934c.507-.345.426.243.386.345a.751.751 0 0 1-.224-.102c-.101-.06-.162-.08-.162-.223m.203.812c-.061.081-.183.183-.264.264-.366.345-1.096.812-1.563 1.097-.163.101-.549.324-.63.446.183-.02.61-.223.792-.304.264-.122.508-.224.73-.386.955-.65.874-.812 1.138-1.056l.223.122c.02.304-.365 1.015-.203 1.583.183.59.772.204.751-.568-.101.102-.223.508-.467.366-.304-.204 0-1.117.082-1.401.142-.427-.061-.406-.203-.569.466-2.05-1.483-.406-.711.203.142.102.223.122.325.203ZM37.809 23.716c.101-.102.385-.61.385-.833-.121-.101-.69-.548-.893-.568l-.304.609c-.082-.04-.102-.081-.203-.163-.143-.101-.508-.365-.65-.385-.061.06-.366.67-.386.791.04.041.792.59.893.61.041-.082.264-.549.325-.61.224.102.69.508.833.549Zm29.62-2.213c.224-.244.508 0 .488.284-.142 0-.426-.183-.487-.284Zm-4.08 2.416c.162.04.974-.183 1.178-.244.527-.122.67-.142 1.096-.386.609-.345 1.157-.73 1.4-1.38 0-.02 0-.061.041-.081.02-.061 0-.041.04-.061.082.08.63.568.853.365.122-.102.265-.65.02-.995-.385-.528-.67.142-.71.183-.122.101 0-.183-.284.325-.081.142-.162.325-.244.426-.852.914-3.086 1.604-3.39 1.848Zm-57.354-.203c.101-.102.386-.61.386-.833-.163-.122-.71-.548-.894-.568-.06.142-.243.467-.284.609-.183-.081-.63-.508-.873-.548-.06.06-.365.69-.386.791.02.041.813.59.894.61.04-.082.264-.549.325-.61.223.102.69.508.832.549Zm13.643-1.462c-.02.06-.771 1.076-.101 1.32.243.08.629 0 .832-.061.203-.082.508-.264.589-.407-.244.02-.508.122-.792.163-1.157.122-.71-.487-.223-.954.243-.244.568-.345.507-.792-.162.06-.365.487-.73.345-.346-.142-.041-.406.06-.406.102 0 .122.06.163.122.203-.142.223-.427.08-.467-.223-.081-.69.487-.73.751-.04.244.122.366.325.426m9.197-10.8c.04-.143.182-.224.345-.203.081.121.101.223.081.406-.142 0-.365-.122-.426-.224m.284.792-.508.528c-.406.406-1.34 1.096-1.746 1.482.061.04-.04.04.102 0l.264-.142c.386-.223.69-.365 1.056-.65.345-.284.913-.832.994-1.177.183 0 .264.122.386.182.04-.142.142-.304.122-.466-.102-.082-.223-.122-.345-.224.02-.243.081-.609-.061-.853-.284-.507-1.32.711-.63 1.137.143.082.264.082.346.183M19.273 9.89c.06-.244.507-.366.426.223-.102.061-.365-.101-.426-.223Zm.264.75c-.082.102-.163.163-.244.265-.101.101-.142.162-.264.264-.203.182-.386.325-.589.487-.182.142-1.157.853-1.198.974.325-.06 1.239-.629 1.482-.812.244-.182.772-.69.934-.954.041-.081.041-.081.102-.162.142.081.183.081.304.182 0 0 .163-.284.163-.385 0-.102-.183-.203-.325-.264 0-.264.122-.589-.02-.853-.224-.446-.975.264-.894.792.02.162.143.223.224.284.04.04.101.081.162.102.02 0 .061 0 .081.04l.082.061v-.02Zm8.466 11.31v-.062c.02-.08.06-.06.06-.203-.162.02-.243.264-.365.366-.203.162-.386 0-.589-.04-.548-.102-1.055.385-1.38.71-.812.812-.995.71-1.198.873-.04.02 0 0-.04.04.75-.06 1.055-.588 1.542-.933.71-.508.995-.204 1.28-.183.263 0 .487-.224.547-.224.082 0 .183.102.305.102.345 0 .467-.65.325-.812-.223.101-.142.386-.142.447-.122 0-.244 0-.345-.061m20.525-11.228c-.08-.182-.203-1.32-.934-1.32-.06.123-.284.387-.203.529.346.527.447 0 .63.304l.203.467c.101.244.183.67.223.71.244-.121.305-.811.365-1.116.244-1.056.467-.467.65-.406.264-.203.04-.792-.304-.71-.325.08-.488.852-.549 1.177-.02.122-.04.284-.08.365ZM54.883 22.6c-.102-.305-.224-1.32-.914-1.32-.06.102-.304.386-.223.528.223.406.508.183.528.183.122.02.365.73.426.914.04.121.061.304.081.385.346-.06.305-1.482.67-1.726.224 0 .203.122.346.204.385-.142-.082-1.137-.488-.508-.223.325-.325 1.238-.426 1.34Zm-45.7 2.05c.121-.04 1.258-.65 1.502-.791l1.157-.59c.081-.08.102-.364.081-.486-.162.06-1.34.65-1.522.75-.244.143-.508.265-.772.407-.081.04-.325.162-.345.223-.061.081-.081.366-.081.467m35.021-1.116c.163-.061.589-.305.751-.386l1.889-.975c.08-.08.08-.365.08-.487l-1.522.751c-.264.142-.508.264-.771.406-.082.04-.325.163-.366.224-.06.08-.081.365-.081.467M5.366 11.757c-.061.041-.02 0-.061.082-.061.122-.061.548-.285.71-.101.082-.324.143-.406 0-.08-.142 0-.365 0-.527-.324.162-.507 1.42.305 1.015.101-.061.122-.082.203-.143.122-.08.142-.04.284-.04.751 0 1.056-1.137.751-1.462-.08.061-.223.305-.203.427.061.162.264.385-.243.548-.04 0-.102.02-.142.02-.122 0-.082 0-.122-.061-.081-.183.081-.447-.081-.569Zm24.017 3.168c-.081.06-.122.121-.243.162-.528.223-.285-.243-.386-.568-.102.02-.081-.061-.142.264-.02.101-.061.223-.081.324-.061.163-.285.366-.508.244-.163-.122-.04-.365-.06-.568-.143.06-.407.588-.224.954.223.426.73-.142.852-.122.244 0 .366.04.528-.101.508-.366.61-1.137.366-1.34l-.061.08c0 .041-.04.062-.04.082 0 .04-.082.142-.082.162 0 .082.081.244.081.427Zm50.898-2.274c-.06.081-.447.345-.65.244-.203-.102 0-.61.102-.711.183.06.507.284.548.467Zm-.914.284c0 .284.041.467.366.467.548 0 .69-.487.69-.954 0-.467-.406-.65-.507-.751.04-.142.182-.427.203-.569-.203-.04-.224.142-.305.305-.081.162-.122.284-.203.446-.081.224-.244.813-.244 1.056Zm-15.43 1.421c-.1.203-.507.366-.649.284-.162-.101 0-.588.102-.71.203.081.446.244.548.426Zm-.913.305c0 .751.71.426.893.223.163-.183.183-.426.183-.71 0-.285-.365-.65-.507-.711 0-.102.06-.223.101-.325 0-.06.061-.101.061-.142.02-.081.06-.101 0-.142-.244-.122-.71 1.441-.71 1.827m24.301 6.781c.102.081.812.569.873.589.102-.122.406-.63.386-.833 0-.04-.69-.548-.893-.568-.061.102-.366.71-.366.812ZM43.9 15.168c.142.122.285.183.427.285.101.08.325.243.426.284.101-.081.508-.71.365-.873a.875.875 0 0 0-.203-.142c-.121-.102-.487-.366-.629-.386-.081.081-.386.67-.386.812m35.407 1.137.874.609c.121-.101.406-.609.385-.832-.162-.102-.65-.508-.852-.549-.082.082-.366.65-.406.792M13.71 12.61c-.183.102-.142.386-.406.366-.508-.061.06-1.564.122-1.787-.305.284-.731 1.665-.427 2.111.061.102.244.163.386.082.183-.122.284-.487.345-.792M42.478 26.883c-.102-.325-.224-.67-.69-.67-.468 0-.508.223-.508.507 0 .284.203.467.63.69.568.285.872.528.872 1.016 0 .487-.487.994-1.177.994-.69 0-.59-.08-.813-.162-.04-.122-.101-.589-.142-.832l.183-.041c.102.325.366.832.853.832s.528-.223.528-.527c0-.305-.183-.488-.61-.711-.527-.284-.852-.528-.852-1.035 0-.508.386-.914 1.116-.914.731 0 .59.081.69.081 0 .183.062.427.082.751l-.183.04.02-.02ZM44.53 26.842c-.143.386-.305.771-.427 1.137h.853l-.406-1.137h-.02Zm.466 2.497v-.162c.325-.04.345-.102.264-.305-.06-.162-.142-.406-.223-.65h-1.015c-.061.183-.142.366-.203.549-.102.325 0 .365.386.406v.162h-1.219v-.162c.325-.04.386-.081.569-.508l1.035-2.599.223-.04c.325.873.65 1.787.975 2.619.183.467.223.487.548.528v.162h-1.38.04ZM49.24 29.34v-.163c.385-.04.405-.081.405-.548v-1.99c-.386.873-.873 2.01-1.157 2.7h-.162c-.264-.69-.711-1.786-1.076-2.68-.082 1.645-.082 1.97-.082 2.132 0 .264.122.345.488.366v.162h-1.218v-.162c.284-.02.405-.082.446-.366.02-.183.04-.426.163-2.132 0-.243-.02-.365-.467-.406v-.162h1.015l1.015 2.335 1.056-2.335h.994v.162c-.406.041-.467.082-.446.467l.04 1.888c0 .488.02.508.447.549v.162h-1.462v.02ZM52.386 26.842c-.142.386-.305.771-.426 1.137h.852l-.406-1.137h-.02Zm.467 2.497v-.162c.325-.04.345-.102.264-.305-.061-.162-.142-.406-.223-.65h-1.016c-.06.183-.142.366-.203.549-.101.325 0 .365.406.406v.162h-1.218v-.162c.325-.04.386-.081.569-.508l1.035-2.599.224-.04c.324.873.65 1.787.974 2.619.183.467.223.487.548.528v.162h-1.38.02ZM39.329 27.533H1.099v.365h38.23v-.365ZM93.56 27.533H55.33v.365h38.23v-.365ZM117.778 41.5c-.061-.345-.183-.71-.284-1.035-.163-.528-.427-1.38-.142-1.909a.715.715 0 0 1 .142-.203l.061-.06.081.04c.162.081.284.467.325.63.121.365.223.73.304 1.096.081.345.163.67.224 1.015.04.182.081.386.101.568.487.102.954.203 1.421.284l-.101-.71-.63-.122-.487-1.888c-.081-.345-.183-.69-.264-1.015-.081-.366-.183-.71-.243-1.097l-.102.122a1.039 1.039 0 0 1-.467.244c-.183.06-.365.101-.528.183-.487.223-.67.588-.751 1.096-.102.69.264 1.4.365 2.07v.082l-.06.04c-.224.163-.488.265-.731.386-.406.224-.609.528-.772.955.041 0 .081.04.102.04 2.416.995 5.014 1.482 7.633 1.482 2.619 0 .955 0 1.421-.06l.264-.793c-.548.041-1.116.082-1.685.082-2.01 0-4.02-.305-5.928-.914a.987.987 0 0 1-.223-.081l-.183-.061.122-.122c.223-.243.629-.365.974-.365m-11.41-22.678c-.04-.04-.101-.06-.162-.081h-.304l-.041-.061c-.183-.386-.284-.771-.629-1.035-.102-.082-.224-.142-.346-.203-.223-.082-.446-.122-.67-.082-.548.102-.751.65-.832 1.137v.122l-.142-.02c-.893-.224-.832-1.137-.731-1.888-.508.507-.853 1.177-.467 1.888.223.406.629.751 1.035.974l.082.04v.082a19.173 19.173 0 0 0-.386 3.878c0 5.542 2.254 10.8 6.253 14.638l.061.06c.162.163.345.326.508.488l.081.081c.365.345.771.65 1.157.954l2.254-3.532c.121-.183.263-.386.487-.447.081-.02.182-.04.264-.04-.082-.244-.122-.508-.183-.752-.041-.203-.081-.406-.142-.609 0-.08-.041-.142-.061-.223-.934 1.441-1.848 2.883-2.781 4.304l-.082.102-.101-.082c-.325-.264-.63-.548-.934-.832-.366-.345-.711-.71-1.056-1.076l-.081-.081 1.665-1.36a3.256 3.256 0 0 1-.63-.386c-.182-.142-.203-.142-.284-.203v.304a.565.565 0 0 1-.183.203 6.502 6.502 0 0 1-.406.305c-.182.142-.365.304-.568.446l-.081.082-.081-.082a19.934 19.934 0 0 1-1.239-1.685l-.061-.101 1.888-1.137c-.284-.223-.568-.447-.812-.71-.081.243-.284.426-.507.568l-.975.589-.061-.102a16.818 16.818 0 0 1-.873-1.705l-.061-.102 2.031-.873c-.041-.04-.082-.081-.122-.101-.122-.122-.244-.224-.366-.366-.081-.101-.162-.223-.243-.325v.041c-.061.183-.224.284-.366.365-.142.082-.284.163-.426.224l-.67.304-.102.04-.04-.1a19.24 19.24 0 0 1-1.157-4.528v-.163l.142.041c.568.142 1.137.467 1.664.731l.244.122-.081-1.036-1.421-.426.203-.142c.182-.122.385-.223.589-.325l.548-.244-.082-1.035c-.223.163-.426.345-.649.508-.305.223-.751.527-1.117.65l-.142.04-.041-.406v-.873c0-1.218.122-2.436.346-3.655v-.101h.121c.731.122 1.34-.183 1.848-.67a1.67 1.67 0 0 1 .507-.325Zm-1.218-.162a.532.532 0 0 1-.629.406.532.532 0 0 1-.406-.63.532.532 0 0 1 .629-.406c.285.061.467.345.406.63Zm4.365-6.091c-.223-.426-.426-.832-.548-1.3a28.583 28.583 0 0 0-1.34 1.747c-.365.527-.69 1.055-.995 1.624a9.817 9.817 0 0 0-.324.65c-.163.345-.61.203-.853.04l-.081-.06.04-.082a20.921 20.921 0 0 1 2.944-4.527l-.548-.549c-.975 1.158-1.848 2.376-2.578 3.716a19.195 19.195 0 0 0-.833 1.726c.386.223.812.487 1.239.608.243.082.548.122.812 0 .243-.121.406-.365.507-.608.081-.183.163-.346.244-.508.223-.467.507-.914.771-1.34.203-.325.447-.65.691-.954a.404.404 0 0 1 .243-.163c.122-.04.244 0 .366 0h.223m6.05 24.729-.426-1.686a54.244 54.244 0 0 0-1.462 2.295c-.203.345-.406.69-.629 1.035-.325.548-.65 1.096-.995 1.624l.71.447 1.949-3.127c.122-.182.244-.386.467-.487a.465.465 0 0 1 .224-.06c.061 0 .101-.021.162-.041Zm11.816-28.83c.264.508.508 1.056.812 1.563.305-.893.609-1.786.893-2.68.102-.344.203-.69.325-1.055.183-.63.386-1.239.589-1.848l-.792-.264-1.116 3.513c-.061.203-.143.406-.305.548-.061.06-.142.081-.203.122-.061.04-.122.06-.162.081m15.876 16.262c-.914 0-1.827-.06-2.741-.101h-.995c-.142 0-.324 0-.467-.061a.556.556 0 0 1-.243-.183c-.102-.081-.183-.162-.284-.244-.082.082-.183.163-.264.244-.366.325-.691.65-1.056.954l6.03.203.04-.812h-.02Zm-.183 1.888-2.923-.101h-1.097c-.223 0-.467 0-.67-.142a.989.989 0 0 1-.324-.325c-.366.365-.752.73-1.137 1.096 1.705-.081 3.431.122 5.136.244h.122l-.02.142a22.44 22.44 0 0 1-.528 2.01v.08h-.102c-.487 0-.913.224-1.177.63-.366.569-.284 1.32.223 1.767l.061.06-.041.082a26.298 26.298 0 0 1-.913 1.665l-.061.08-1.381-.69c.041.204.082.427.082.61v.73c.345-.08.67 0 .974.163.203.122.386.223.589.345l.426.244c.183.121.386.264.467.467.102.223.041.548 0 .812a.819.819 0 0 0 .366-.264c.203-.224.284-.528.243-.833-.02-.325-.203-.548-.426-.771-.102-.081-.203-.183-.325-.264a1.286 1.286 0 0 1-.244-.223l-.061-.061.305-.528c.223-.386.426-.792.629-1.178l.041-.08h.081a1.32 1.32 0 0 0 1.239-.63 1.406 1.406 0 0 0-.264-1.828l-.061-.06v-.082c.142-.365.243-.73.345-1.116.101-.406.183-.812.264-1.218.061-.285.101-.569.142-.873m-2.132 4.04c.203-.305.609-.386.934-.203.325.182.386.609.203.934-.183.325-.609.385-.934.203-.325-.183-.385-.61-.203-.934Zm-1.989-10.984c.385.305.771.61 1.157.934.345.284.67.548.995.853.182.162.365.325.528.487a22.84 22.84 0 0 0-.143-1.157 18.425 18.425 0 0 0-3.289-8.04c-.264-.365-.162-.73.163-1.015l.081-.081.569.771a19.429 19.429 0 0 1 3.41 8.974c.061.589.082 1.157-.264 1.624l1.158-.06c-.021-.529-.041-1.056-.102-1.584a20.039 20.039 0 0 0-3.147-8.771c-.223-.345-.446-.65-.67-.974a18.93 18.93 0 0 0-1.299-1.564c-.223-.243-.426-.487-.65-.71a20.827 20.827 0 0 0-2.03-1.787c-.487-.365-.974-.71-1.482-1.035a16.594 16.594 0 0 0-1.401-.812 25.69 25.69 0 0 0-1.523-.731l-.994 3.39c-.082.284-.143.548-.224.833-.04.142-.081.304-.182.406a1.179 1.179 0 0 1-.427.182c.264.467.528.954.792 1.421.487-1.685.975-3.35 1.482-5.014l.041-.142.121.06c.325.163.65.346.975.508.284.163.548.325.832.487l.102.061-1.36 1.95c.467 0 .731.08 1.137.284 0-.061 0-.122-.021-.183v-.284c.041-.163.142-.305.224-.427.203-.264.406-.548.588-.812l.061-.101.102.06c.649.468 1.238.955 1.827 1.462l.081.082-1.624 1.847c.162 0 .325.04.487.102.224.08.447.162.65.263v-.406c.041-.142.162-.264.264-.385l.731-.792.081-.081.081.08c.427.366.792.833 1.157 1.26l.082.101-.102.081c-.731.467-.832 1.198-.345 1.889a17.7 17.7 0 0 1 3.045 7.065l.102.507-.224-.162a9.14 9.14 0 0 0-1.583-.853m-13.318 19.693a.477.477 0 1 0 .02.954.477.477 0 1 0-.02-.954Zm2.74 2.03c.366-.121.752-.223 1.097-.365a18.543 18.543 0 0 0 7.227-4.812c.305-.345.691-.304 1.015-.04l.102.081-.65.69a19.223 19.223 0 0 1-7.593 4.934c-.832.304-1.685.528-2.558.73h-.101c0 .021-.366-1.44-.366-1.44-.223.365-.609.69-.934.933.427.325.65 1.076.731 1.543.041.264.081.589.061.853a.51.51 0 0 1-.203.426c-.061.061-.122.081-.203.122.345 0 .731-.04.954-.244.305-.325.203-.934.122-1.32v-.1c-.02 0 .081-.021.081-.021a27.316 27.316 0 0 0 2.518-.71 20.114 20.114 0 0 0 7.512-4.67c.284-.284.568-.569.832-.853.244-.284.508-.568.731-.873l-.67-.65c-.609-.629-1.36-.527-1.929.102a17.7 17.7 0 0 1-6.314 4.385l-.487.203.101-.264a8.059 8.059 0 0 0 .508-1.725c-.223.446-.447.873-.67 1.32-.203.385-.406.77-.629 1.136l-.366.61M115.423 6.417c.264.223.609.406.893.609.467.304 1.239.751 1.36 1.36v.324h-.081c-.183.041-.528-.182-.67-.263a15.579 15.579 0 0 1-.954-.63 22.409 22.409 0 0 1-.832-.629c-.163-.122-.305-.243-.467-.365-.427.223-.853.467-1.259.71l.548.467.548-.325 1.604 1.097c.284.203.569.406.873.609.305.203.609.426.893.67v-.163c0-.182.102-.345.203-.487.102-.162.203-.325.285-.487.223-.487.122-.893-.142-1.32-.366-.588-1.117-.893-1.625-1.32l-.061-.04v-.081c.102-.264.224-.508.305-.772.162-.426.102-.791-.041-1.218-.04 0-.081.02-.121.04a20.356 20.356 0 0 0-6.741 3.879c-.365.304-.71.629-1.035.974l.325.772a16.13 16.13 0 0 1 1.218-1.158 19.43 19.43 0 0 1 5.075-3.187c.082-.04.143-.061.203-.081l.163-.082v.183c-.02.325-.244.67-.508.914m19.633-1.137a.477.477 0 1 0 .02.954.477.477 0 1 0-.02-.954Zm-.813 6.557a.477.477 0 0 0-.466.488.477.477 0 1 0 .954-.02.477.477 0 0 0-.488-.468Z"/>
  <path fill="#fff"  d="M122.995 47.286c-12.852 0-23.287-10.435-23.287-23.286 0-12.852 8.872-21.663 20.363-23.104a2.934 2.934 0 0 0 1.685 2.294 2.927 2.927 0 0 0-1.705 2.68c0 1.198.69 2.213 1.705 2.68a2.927 2.927 0 0 0-1.705 2.68v.04c-5.807 1.34-10.131 6.538-10.131 12.75 0 6.213 5.867 13.075 13.075 13.075 7.207 0 13.074-5.868 13.074-13.075 0-7.207-4.324-11.41-10.131-12.75v-.04c0-1.178-.69-2.213-1.705-2.68a2.927 2.927 0 0 0 1.705-2.68c0-1.198-.69-2.213-1.705-2.68a3.01 3.01 0 0 0 1.685-2.294C137.389 2.337 146.281 12.123 146.281 24c0 11.877-10.435 23.286-23.286 23.286ZM120.66 5.87c0-1.3 1.056-2.335 2.335-2.335a2.348 2.348 0 0 1 2.334 2.335 2.348 2.348 0 0 1-2.334 2.335 2.348 2.348 0 0 1-2.335-2.335Zm7.187 6.618a12.199 12.199 0 0 1 3.959 2.68 12.536 12.536 0 0 1 2.68 3.96c.649 1.542.974 3.166.974 4.851 0 1.686-.325 3.31-.974 4.853a12.212 12.212 0 0 1-2.68 3.959 12.527 12.527 0 0 1-3.959 2.68c-1.543.65-3.167.974-4.852.974-1.685 0-3.31-.325-4.853-.974a12.199 12.199 0 0 1-3.959-2.68 12.533 12.533 0 0 1-2.679-3.96 12.398 12.398 0 0 1-.975-4.852c0-1.685.325-3.309.975-4.852a12.194 12.194 0 0 1 2.679-3.959 12.527 12.527 0 0 1 3.959-2.68 12.407 12.407 0 0 1 4.853-.974c1.685 0 3.309.325 4.852.974Zm-4.852-1.563c-.792 0-1.584.081-2.335.203a2.346 2.346 0 0 1 2.335-2.253c1.258 0 2.294.994 2.334 2.253a12.641 12.641 0 0 0-2.334-.203Zm0-10.212c.791 0 1.563.04 2.314.122a2.343 2.343 0 0 1-2.314 2.03 2.343 2.343 0 0 1-2.315-2.03 22.104 22.104 0 0 1 2.315-.122Zm22.007 13.988a23.74 23.74 0 0 0-5.116-7.593 23.75 23.75 0 0 0-7.593-5.116 23.843 23.843 0 0 0-9.298-1.868c-3.228 0-6.355.63-9.299 1.868a23.75 23.75 0 0 0-7.593 5.116 23.74 23.74 0 0 0-5.116 7.593A23.843 23.843 0 0 0 99.119 24c0 3.228.63 6.354 1.868 9.298a23.74 23.74 0 0 0 5.116 7.593 23.749 23.749 0 0 0 7.593 5.116 23.846 23.846 0 0 0 9.299 1.868c3.228 0 6.354-.63 9.298-1.868a23.749 23.749 0 0 0 7.593-5.116 23.74 23.74 0 0 0 5.116-7.593A23.834 23.834 0 0 0 146.87 24c0-3.228-.629-6.355-1.868-9.299Z"/>
  <path fill="#fff"  d="M127.239 32.263c.385-.02.812 0 1.218 0-.183.69-.731.792-1.523.792.061.142.142.142.284.223 1.564.792 2.822-1.035 2.112-2.396-.569-1.137-1.665-.873-2.01.183-.163.467-.183.995-.081 1.218m1.34-.914s-.082.264-.386.143c-.163-.082-.183-.264-.122-.406.142-.285.65-.082.508.263ZM117.291 29.4c.182.163.365.203.365.569v.243c-1.259.082-1.198 1.157-1.198 2.01h1.99V28.63c-.244.284-.812.629-1.178.771m.021 2.03c.02-.243.142-.365.365-.406v.406h-.365Zm7.39-1.664 2.05 2.456c.223.284-.507.386-.771.163l-.183-.163h-6.7v-.812h3.472c-.041-.426-.345-.386-.751-.386-.955 0-1.949.041-2.761 0 .04-.122.243-.264.406-.507.081-.102.304-.569.365-.63.365.325-.061.366 1.015.366h.853c.447 0 .873 0 1.198.223.264.203.467.508.467.954h1.786c-.528-.629-1.035-1.258-1.563-1.888.244-.203.609-.386 1.137.244m2.497-3.817c.366-.345.366-.325.366-.67v-1.238c0-.792-.143-.954.365-1.239l-.102-.081c-.71-.487-.649-.771-1.076-1.117v3.574c0 .121-.203.264-.284.385-.183-.182-.304-.324-.304-.365v-3.533c-.406.366-.548.853-1.158 1.097.041.06 0 0 .061.06.406.407.305-.243.305.792v1.767c0 .243.223.527.426.629l-.182.183c-.102.101-.224.142-.224.345v1.36h2.213v-1.056c0-.609-.061-.588-.365-.893m-.691.447c.102.142.285.325.285.386v.324h-.589v-.325c0-.06.203-.284.304-.385Zm-9.278.73c0-.223.142-.405.386-.385v.386h-.386Zm2.761-3.715c0-.446.203-.406.366-.65-.122-.121-.325-.182-.65-.507a3.584 3.584 0 0 1-.264-.305c-.081-.101-.162-.263-.243-.324v5.481h-.812v-2.842c-.102.04-.082.04-.163.122-.406.406-.832.507-1.015.65.284.142.386.223.386.609v.243c-.447.102-.65.142-.894.426-.365.447-.304 1.016-.304 1.584h5.583v-4.487c0-.264.061-.365.244-.528.04-.04.04-.04.081-.06.04-.02.04-.02.061-.061-.244-.203-.345-.183-.65-.508a3.584 3.584 0 0 1-.264-.305 2.252 2.252 0 0 0-.243-.324v5.481h-1.219v-3.715.02Zm3.716 4.507c.061-.284 0-3.126 0-3.898 0-.771-.122-.771.284-1.055l.142-.122c-.244-.102-.568-.366-.711-.528l-.527-.65v6.274h.812v-.02Zm5.38-4.365c0-.365.183-.548.406-.69-.142-.081-.264-.162-.386-.243a4.025 4.025 0 0 1-.304-.285c-.224-.223-.467-.609-.528-.67v6.274h.812v-4.385ZM117.27 20.02c0-.263.122-.385.386-.405v.405h-.386Zm6.375.792c.061-.325 0-3.086 0-3.898 0-.812-.061-.75.102-.974.081-.142.203-.142.284-.244-.244-.223-.305-.081-.893-.812-.061-.081-.082-.081-.102-.162l-.142-.163v5.482h-4.446v-2.843c-.224.224-.751.63-1.178.752l.244.203c.183.203.122.325.101.65-.751.06-1.197.608-1.197 1.38 0 .771-.061.63.324.63.853 0 6.193.04 6.883 0m.954 0h.812c.081-.427-.04-3.229 0-4.386 0-.223.102-.426.244-.548l.162-.122c-.243-.101-.548-.365-.69-.508-.203-.223-.467-.629-.528-.67v6.254-.02Zm4.223-1.828c.365-.345.365-.325.365-.67v-1.238c0-.792-.142-.955.366-1.219l-.102-.08c-.71-.488-.649-.772-1.076-1.117V18.234c0 .122-.203.264-.284.386-.183-.183-.304-.325-.304-.366v-3.532c-.406.365-.549.873-1.158 1.096.041.06 0 0 .061.06.406.407.305-.243.305.793v1.766c0 .244.223.528.426.63l-.183.182c-.101.102-.223.142-.223.345v1.36h2.213V19.9c0-.61-.061-.59-.365-.894m-.772.427c.102.122.284.325.284.386v.324h-.588v-.325c0-.06.203-.284.304-.385Z"/>
</svg>
