<svg width="130" height="48" viewBox="0 0 130 48" fill="none" xmlns="http://www.w3.org/2000/svg">
  <g clip-path="url(#a)" fill="#fff" >
    <path d="M51.61 29.673c-.397 0-.794.318-.794.715s.318.794.794.794.715-.318.715-.794a.71.71 0 0 0-.715-.715M5.277 24.04H4.244c-.317-.16-.397-.398-.397-.636s.16-.397.397-.397c.239 0 .397.16.397.397h.556c-.08-.714-.476-1.111-1.032-1.111s-.953.397-.953.953c0 .317.08.476.238.635h-.317v.635h2.142v-.476z"/>
    <path d="M7.179 26.5c0 .475-.159.872-.873.872H2.498a1.085 1.085 0 0 1-1.112-1.111v-1.586H.197v1.586c0 1.348 1.032 2.3 2.301 2.3h4.284c.953 0 1.586-.714 1.586-1.586v-5.95h-1.19zm3.255 2.301c0 .635-.476 1.111-1.112 1.111h-.555v1.269h.555c1.348 0 2.301-1.032 2.301-2.3v-5.317h-1.268V28.8zm14.917.714a.71.71 0 0 0-.715.715c0 .397.317.794.714.794a.796.796 0 0 0 .794-.794c0-.397-.317-.715-.794-.715m5.315-2.618c0 .318-.238.476-.477.476h-1.665c-.238 0-.476-.079-1.112-1.427-1.111-2.3-2.777-3.253-4.76-2.539v1.112c1.586-.636 2.618 0 3.412 1.506.318.556.556 1.112.715 1.269h-4.84a.71.71 0 0 1-.714-.715v-1.19c0-1.349-1.032-2.38-2.38-2.38h-.16c-1.347 0-2.38 1.031-2.38 2.38v1.19a.71.71 0 0 1-.714.715h-.873c-.239 0-.477-.159-.477-.476v-5.793h-1.268v6.19c0 .714.556 1.268 1.268 1.268h1.269q.953 0 1.427-.714a2.83 2.83 0 0 0 1.825.635c.635 0 1.19-.318 1.586-.715q.477.715 1.427.715h8.65c.714 0 1.268-.556 1.268-1.269v-6.19h-1.269zm-10.632-.635c0 .635-.477 1.111-1.112 1.111-.556 0-1.032-.238-1.268-.635V25.47c0-.715.476-1.112 1.111-1.112h.08c.635 0 1.111.476 1.111 1.112zm14.6-5.158h-1.269v7.538h1.269zm3.808 2.063h-.16c-1.347 0-2.38 1.032-2.38 2.38v.794c0 1.348 1.033 2.38 2.301 2.38h1.348v.16c0 .873-.635 1.347-2.777.952v1.191c2.618.635 4.046-.317 4.046-1.824v-3.65c-.078-1.43-1.03-2.383-2.379-2.383m1.11 4.207h-1.27c-.555 0-1.032-.556-1.032-1.112v-.794c0-.635.477-1.112 1.112-1.112h.08c.635 0 1.11.477 1.11 1.112zm6.032-5.158a.71.71 0 0 0 .715-.715.71.71 0 0 0-.715-.714c-.397 0-.794.317-.794.714s.318.715.794.715m2.061 0a.71.71 0 0 0 .715-.715.71.71 0 0 0-.715-.714.71.71 0 0 0-.714.714c0 .397.317.715.714.715m8.887 7.458a.71.71 0 0 0-.715.715c0 .397.318.794.715.794s.715-.318.715-.794a.71.71 0 0 0-.715-.715m.715-2.3v-3.808h-1.269v3.412c0 .318-.238.477-.476.477h-2.221c-.636 0-.874-.397-.874-.874v-3.015h-1.268v3.015c0 .477-.16.874-.794.874h-.874a.71.71 0 0 1-.714-.715v-3.571h-2.46c-1.348 0-2.38 1.032-2.38 2.38v.715c0 1.268 1.032 2.38 2.3 2.38.795 0 1.27-.238 1.666-.715.397.477.874.715 1.587.715h.873c.714 0 1.111-.238 1.427-.635.318.397.794.635 1.269.635h2.777c.875-.002 1.431-.558 1.431-1.27m-9.6-.556c-.318.397-.794.635-1.269.635-.555 0-1.032-.477-1.032-1.112v-.714c0-.715.477-1.112 1.112-1.112h1.268v2.3c0 .003-.079.003-.079.003m6.744 2.856c-.397 0-.794.318-.794.715s.317.794.794.794c.397 0 .714-.318.714-.794.08-.397-.317-.715-.714-.715m13.172-7.22c.397 0 .714-.317.714-.794 0-.476-.317-.714-.714-.714s-.794.317-.794.714c.079.477.397.794.794.794"/>
    <path d="M72.08 26.896c0 .317-.238.476-.476.476h-1.19v-.953c0-2.22-.954-3.253-2.778-3.253-1.191 0-2.221.794-3.095 1.824v-1.268h-1.268v3.65h-1.745v-3.968h-1.269v5.316c0 .636-.476 1.112-1.111 1.112h-.556V31.1h.556c1.348 0 2.3-1.032 2.3-2.3v-.16h10.474c.714 0 1.268-.555 1.268-1.268v-6.19h-1.268v5.714zm-2.935.556h-4.602v-1.269c.953-1.111 1.983-1.745 2.936-1.745s1.745.556 1.745 2.063zm6.905-6.349h-1.27v7.538h1.269zm3.805 2.063h-.158c-1.348 0-2.38 1.032-2.38 2.38v.794c0 1.348 1.032 2.38 2.3 2.38h1.348v.16c0 .873-.635 1.347-2.777.952v1.191c2.618.635 4.046-.317 4.046-1.824v-3.65c-.078-1.43-1.03-2.383-2.379-2.383m1.112 4.207h-1.269c-.555 0-1.032-.556-1.032-1.112v-.794c0-.635.477-1.112 1.112-1.112h.159c.635 0 1.111.477 1.111 1.112zM3.93 9.68c.396 0 .714-.318.714-.795a.71.71 0 0 0-.715-.714.71.71 0 0 0-.714.714c0 .477.317.794.714.794m-2.147.001c.397 0 .715-.318.715-.795a.71.71 0 0 0-.715-.714c-.397 0-.794.317-.794.714.081.477.4.794.794.794m.955.713h-.159a2.303 2.303 0 0 0-2.3 2.3v.954c0 1.268 1.032 2.3 2.3 2.3h.238c1.191 0 2.222-1.032 2.222-2.221v-1.032a2.304 2.304 0 0 0-2.301-2.301m1.032 3.333c0 .476-.397.953-.953.953h-.238c-.556 0-1.032-.477-1.032-1.112v-.873c0-.636.476-1.032 1.032-1.032h.159c.635 0 1.032.476 1.032 1.032zm20.705-3.966c.397 0 .715-.318.715-.794a.71.71 0 0 0-.715-.715.71.71 0 0 0-.714.715c.002.397.317.794.714.794m11.981 4.443c0 .317-.239.476-.477.476h-10.87v-3.966h-1.269v5.316c0 .635-.476 1.111-1.111 1.111h-.556v1.267h.556c1.348 0 2.3-1.032 2.3-2.3v-.16h11.266c.715 0 1.269-.555 1.269-1.268v-6.19h-1.269v5.714zm3.968-5.793h-1.269v7.537h1.269zm5 1.111a.71.71 0 0 0 .715-.714.71.71 0 0 0-.715-.715c-.397 0-.794.318-.794.715.08.397.397.714.794.714m2.141 0a.71.71 0 0 0 .715-.714.71.71 0 0 0-.715-.715.71.71 0 0 0-.714.715.71.71 0 0 0 .714.714m6.268-.397H52.72c-.317-.158-.397-.397-.397-.635s.16-.397.397-.397q.358 0 .477.477h.635c-.08-.794-.477-1.112-1.112-1.112s-1.032.397-1.032 1.032q0 .477.238.715h-.397v.714h2.301zm8.966 7.776c-.397 0-.794.317-.794.714s.318.794.794.794c.397 0 .715-.317.715-.794 0-.476-.318-.714-.715-.714m2.062 0a.71.71 0 0 0-.716.714c0 .397.318.794.715.794s.715-.317.715-.794c0-.476-.318-.714-.715-.714m11.505-6.349v.636c-.874.238-1.428.953-1.507 1.904v.556c0 .396.159.793.397 1.032h-7.935c-.635 0-.873-.397-.873-.874V10.79h-1.191v3.015c0 .477-.159.874-.794.874H58.51c-.635 0-.874-.397-.874-.874V10.79h-1.268v3.015c0 .477-.159.874-.794.874h-6.19a.71.71 0 0 1-.714-.715v-3.571h-2.46c-1.348 0-2.38 1.032-2.38 2.38v.715c0 1.268 1.032 2.38 2.3 2.38.795 0 1.27-.238 1.666-.715.397.477.874.715 1.587.715h6.11c.714 0 1.111-.238 1.427-.635.318.317.794.635 1.269.635h6.11c.714 0 1.111-.238 1.427-.635.318.317.794.635 1.269.635H79.45c1.269 0 2.3-1.032 2.3-2.3v-.715c.167-1.745-2.054-3.093-5.387-2.301m-28.88 3.492c-.317.398-.794.636-1.268.636-.556 0-1.032-.477-1.032-1.112v-.714c0-.715.476-1.112 1.111-1.112h1.269zm30.547.636h-1.112c-.555-.08-1.032-.477-1.032-1.033v-.476c0-.635.397-1.032 1.032-1.032.636 0 1.033.397 1.033 1.032zm1.586 0h-.556v-1.51c0-.873-.555-1.507-1.268-1.666 1.665-.158 2.856.477 2.936 1.348v.715c0 .633-.477 1.11-1.112 1.11m-57.997-.793c0 1.111-.953 2.062-2.063 2.062h-11.9a1.25 1.25 0 0 1-1.27-1.268v-6.27h1.27v5.793c0 .318.237.476.476.476h11.424c.556 0 .873-.476.873-.952 0-.715-.476-1.032-1.19-1.032h-3.252l-.239-.953 1.904-3.333 1.191.397-1.506 2.618h1.903c1.348.002 2.379 1.034 2.379 2.462M3.053 37.923v.636H.355v-.477L2.1 35.464H.435v-.556h2.539v.476l-1.745 2.619h1.824zm.794-1.586-.079-.476c.873-.397 2.063-.397 2.063.794v1.824h-.636v-.318c-.238.239-.555.398-.873.398-.476 0-.715-.318-.715-.715 0-.635.636-1.032 1.587-1.032v-.16c.001-.633-.713-.553-1.347-.315m.316 1.427c0 .239.159.318.397.318a.72.72 0 0 0 .556-.238v-.635c-.635-.078-.953.24-.953.555m5.315-1.427-.08-.476c.874-.397 2.063-.397 2.063.794v1.824h-.635v-.318c-.238.239-.556.398-.873.398-.477 0-.715-.318-.715-.715 0-.635.635-1.032 1.586-1.032v-.16c.004-.633-.71-.553-1.346-.315m.318 1.427c0 .239.159.318.397.318a.72.72 0 0 0 .556-.238v-.635c-.636-.078-.953.24-.953.555m3.176.08q0 .238.239.238h.238v.476c-.16 0-.397.08-.477.08-.476 0-.635-.238-.635-.715v-1.507h-.317l.079-.476h.238v-.635l.635-.159v.794h.556l-.08.477h-.476zm1.505 1.588h-.397c.08-.238.159-.715.238-1.191v-.159h.477v.159c-.08.476-.239.953-.318 1.19m2.936-4.047v3.095h-.715v-3.095h-1.032v-.556h2.777v.556zm1.825.953-.08-.476c.874-.397 2.063-.397 2.063.794v1.824h-.633v-.318c-.238.239-.556.398-.873.398-.477 0-.715-.318-.715-.715 0-.635.635-1.032 1.586-1.032v-.16c-.077-.633-.792-.553-1.348-.315m.318 1.427c0 .239.159.318.397.318a.72.72 0 0 0 .556-.238v-.635c-.636-.078-.953.24-.953.555m2.936-1.982.397.555.238.397.238-.397.397-.556h.715l-.873 1.349.952 1.427h-.794L23.365 38l-.238-.397-.238.397-.397.556h-.715l.953-1.428-.873-1.347zm3.887.555-.08-.476c.874-.397 2.063-.397 2.063.794v1.824h-.635v-.318c-.239.239-.556.398-.874.398-.476 0-.714-.318-.714-.715 0-.635.635-1.032 1.586-1.032v-.16c.003-.633-.711-.553-1.346-.315m.317 1.427c0 .239.16.318.397.318a.72.72 0 0 0 .556-.238v-.635c-.635-.078-.953.24-.953.555m2.382.795V35.86h.635v.238c.318-.238.556-.317.874-.317.555 0 .794.317.794.873v1.904h-.636v-1.666q0-.477-.476-.476c-.238 0-.476.158-.635.238v1.904zm3.966-.001c-.715 0-1.032-.635-1.032-1.427 0-.794.397-1.427 1.111-1.427.239 0 .556.079.715.317v-1.19h.635v3.73h-.635v-.319c-.238.237-.477.316-.794.316m.238-2.3c-.397 0-.635.317-.635.873s.238.873.635.873c.238 0 .397-.08.477-.158v-1.428c0-.002-.239-.16-.477-.16m4.763 2.301c-1.192 0-1.666-.794-1.666-1.904s.476-1.904 1.666-1.904c.476 0 .873.08 1.268.318v.555c-.556-.158-.873-.238-1.19-.238-.715 0-1.033.477-1.033 1.348s.317 1.348 1.032 1.348c.318 0 .635-.08 1.191-.238v.556c-.476.08-.872.159-1.269.159m4.282-2.777v2.697h-.635v-.238c-.318.238-.556.318-.874.318-.555 0-.794-.318-.794-.874v-1.904h.636v1.666q0 .476.476.476c.238 0 .476-.158.635-.238v-1.904zm.637 2.618v-.477c.318.16.715.239.953.239.397 0 .476-.16.476-.318 0-.238-.238-.318-.556-.397-.397-.159-.873-.318-.873-.873 0-.556.397-.874 1.19-.874q.478 0 .954.238v.477q-.477-.238-.715-.238c-.397 0-.635.159-.635.397s.318.317.635.397c.397.159.794.317.794.794 0 .556-.476.873-1.111.873-.398 0-.794-.08-1.112-.238m3.567-.556q0 .238.24.238h.237v.476c-.158 0-.397.08-.476.08-.477 0-.635-.238-.635-.715v-1.507h-.318l.08-.476h.238v-.635l.635-.159v.794h.556l-.08.477h-.476zm.954-.712c0-.794.397-1.428 1.269-1.428s1.269.635 1.269 1.428c0 .794-.398 1.427-1.27 1.427-.87 0-1.268-.635-1.268-1.427m.636 0c0 .555.238.952.635.952.476 0 .635-.397.635-.953s-.238-.952-.635-.952-.635.476-.635.953m6.584-.477v1.904h-.636v-1.666q0-.477-.476-.476c-.238 0-.476.158-.635.238v1.904h-.635v-1.666q0-.477-.477-.476c-.238 0-.476.158-.556.238v1.904h-.635V35.86h.635v.397c.239-.238.477-.397.874-.397q.595 0 .715.476.476-.476.952-.476c.556-.08.874.238.874.794m.636 1.746v-.477c.317.16.714.239.953.239.397 0 .476-.16.476-.318 0-.238-.238-.318-.556-.397-.397-.159-.873-.318-.873-.873 0-.556.397-.874 1.19-.874.398 0 .636.08.954.238v.477q-.477-.238-.715-.238c-.397 0-.635.159-.635.397s.317.317.635.397c.397.159.794.317.794.794 0 .556-.476.873-1.112.873-.397 0-.794-.08-1.111-.238m4.839-.792-.318.873h-.714l1.348-3.73h.555l1.348 3.73h-.714l-.318-.873zm.08-.477h1.031l-.556-1.586zm5.079-1.349v2.697h-.635v-.238c-.318.238-.556.318-.874.318-.556 0-.794-.318-.794-.874v-1.904h.635v1.666q0 .476.477.476c.238 0 .476-.158.635-.238v-1.904zm1.505 2.062q0 .238.239.238h.238v.476c-.159 0-.397.08-.477.08-.476 0-.635-.238-.635-.715v-1.507h-.317l.079-.476h.238v-.635l.635-.159v.794h.556l-.08.477h-.476zm3.411-1.189v1.903h-.636v-1.665c0-.318-.158-.477-.396-.477s-.477.16-.636.239v1.903h-.635v-3.73h.635v1.191a1.14 1.14 0 0 1 .794-.317c.477 0 .874.318.874.953m.636.477c0-.794.398-1.428 1.27-1.428.87 0 1.268.635 1.268 1.428 0 .794-.397 1.427-1.269 1.427s-1.268-.635-1.268-1.427m.555 0c0 .555.238.952.635.952.476 0 .635-.397.635-.953s-.238-.952-.635-.952-.635.476-.635.953m2.617 1.426v-2.697h.635v.555c.238-.397.556-.555.953-.555v.476c-.397-.08-.874.238-.953.476v1.745zm1.986-3.332c0-.16.159-.318.317-.318.16 0 .318.159.318.318a.34.34 0 0 1-.318.317.34.34 0 0 1-.317-.317m.713 3.333h-.636V35.94h.636zm1.668-.715q0 .238.237.238h.239v.476c-.16 0-.397.08-.477.08-.476 0-.635-.238-.635-.715v-1.507h-.317l.079-.476h.238v-.635l.635-.159v.794h.556l-.08.477h-.476zm3.567-2.062-1.348 3.73h-.635l.238-.795-1.111-2.935h.714l.635 2.141.636-2.142zM8.766 38.559h-.794l-.873-1.27v1.27h-.556v-3.651h.635v2.063l.794-1.191h.715l-.953 1.347zM108.975.159l-19.28 13.17.239.398L109.212.556zm-3.808.236L89.695 10.948l.239.397L105.405.792zm-4.681.794-10.79 7.379.237.397 10.712-7.379zm-6.272 1.904-4.442 3.095.238.397 4.442-3.095zm24.755 14.044-3.094 2.142-16.107 10.95.317.476-2.221 1.507.159.238-4.681 3.254.238.397 5.157-3.572 1.666-1.19 16.343-11.11-.317-.476 2.856-1.983-.159-.238 10.474-7.14-.238-.397zm.876 1.825-3.333 2.3-15.551 10.632.318.477-2.38 1.665.158.239-4.522 3.174.238.397 4.522-3.174 2.301-1.666 15.631-10.632-.318-.477 3.333-2.22-.159-.24 9.6-6.504-.238-.397zm.873 1.744-2.777 1.904-15.869 10.87.317.477-2.142 1.507.159.238-4.601 3.253.238.397 4.601-3.253 2.142-1.507 15.869-10.87-.317-.477 2.777-1.903-.159-.239 8.727-5.95-.239-.398zm1.267 1.509-2.777 1.904-16.108 10.87.318.477-2.777 1.904.159.238-3.808 2.618.238.397 4.364-3.015 2.936-2.063 15.472-10.473-.318-.477 2.618-1.745-.159-.238 7.379-5.078-.238-.397zm1.588 1.268-3.014 2.063-13.963 9.52.317.477-3.332 2.3.158.239-5.157 3.571.238.397 5.634-3.887 2.856-1.983 14.043-9.52-.317-.477 2.935-1.983-.158-.238 5.792-3.967-.238-.397zm3.57.159-.079-.158-3.492 2.38-13.489 9.203.318.476-3.651 2.54.159.237-6.347 4.443.239.397 6.823-4.76 3.491-2.46 13.171-8.965-.317-.476 3.492-2.38-.239-.318.159.159 2.221-1.586-.238-.397zm.079 2.143-1.983 1.348-7.935 5.395.318.476-3.333 2.38.159.239-12.139 8.49.238.397 12.615-8.806 2.936-2.063 7.855-5.395-.317-.476 1.983-1.348-.159-.239 2.062-1.427-.238-.397zm.397 2.221-1.903 1.19-6.267 4.284.317.477-2.936 2.062.159.239-12.774 8.885.238.397 13.409-9.362 2.539-1.824 6.031-4.125-.318-.477 1.904-1.268-.238-.318 1.427-.953-.158-.238zM91.517 16.105l1.825-1.269 6.743-4.601-.318-.477 3.016-2.062-.159-.238 9.997-6.823-.238-.397-9.997 6.823-2.936 2.062-7.14 4.92.317.476-1.666 1.19.16.239-1.27.873.239.397zm1.113 1.665 1.745-1.268 8.411-5.713-.318-.476 2.301-1.587-.159-.238L115.56.951l-.238-.397-10.95 7.537-2.301 1.586-8.885 6.11.317.477-1.506 1.111.159.239-2.38 1.665.238.397zm.398 2.065 2.38-1.666 9.124-6.19-.318-.475 2.46-1.666-.159-.238 11.742-8.094-.238-.397-11.742 8.094-2.539 1.745-9.6 6.505.318.476-2.063 1.428.159.238-2.857 1.983.239.397zm.949 1.745 2.54-1.825 9.678-6.584-.317-.477 2.618-1.745-.159-.238 12.616-8.49-.238-.397-12.775 8.649-2.459 1.665-10.394 7.14.317.477-2.38 1.666.16.238-3.493 2.46.239.397zm1.111 1.586 1.665-1.19 11.188-7.618-.317-.476 2.856-1.983-.159-.238 12.695-8.65-.238-.397-12.695 8.65-2.936 1.983-11.188 7.616.318.477-2.142 1.507.159.238-4.522 3.095.238.397zm1.112 1.588 1.904-1.348 11.583-7.855-.318-.476 3.174-2.142-.158-.238 13.012-8.886-.238-.397-13.013 8.886-3.412 2.3-11.742 8.014.318.477-1.983 1.427.158.238-5.157 3.65.238.398zm.316 2.221 2.698-1.903 13.647-9.283-.317-.476 3.015-2.063-.159-.238 12.139-8.252-.238-.397-12.139 8.252-3.095 2.142-14.201 9.6.317.476-2.539 1.745.16.239-5 3.491.239.397zm.398 2.142 2.38-1.665 14.837-10.077-.318-.476 3.015-2.063-.158-.238 12.774-8.726-.239-.397-12.774 8.726-3.015 2.063-15.154 10.314.317.477-2.539 1.824.16.238-4.602 3.175.238.397zm.476 2.063 2.062-1.428 15.79-10.79-.318-.477 2.857-1.983-.159-.238 12.139-8.252-.238-.397-12.139 8.252-2.857 1.983-15.79 10.79.318.477-2.38 1.666.159.238-4.363 3.015.238.397zm30.547-.159-21.898 15.234.238.397 21.898-15.234zm-1.588 3.571-18.408 12.854.239.397 18.407-12.854zm-3.807 5.078-8.093 5.634.238.397 8.094-5.634z"/>
  </g>
  <defs>
    <clipPath id="a">
      <path fill="#fff" d="M.2 0h129.564v48H.2z"/>
    </clipPath>
  </defs>
</svg>
