<svg width="1376" height="316" viewBox="0 0 1376 316" fill="none" xmlns="http://www.w3.org/2000/svg">
<path d="M231.536 237.188C280.84 182.063 296.787 105.41 294.383 19.0652C294.081 8.20146 294.462 2.08205 288.406 0.891666C282.351 -0.298721 153.16 -0.294755 144.631 0.891666C138.946 1.68261 136.481 8.48674 137.237 21.3041C138.172 67.4723 130.993 96.6184 110.336 117.548C89.6047 138.553 62.7327 145.811 18.4753 147.567C-0.90027 148.335 0.14005 156.758 0.14005 167.501V295.656C0.140059 306.339 -2.79398 315.602 18.1963 315.578L19.3506 315.602C106.404 314.613 182.136 292.42 231.536 237.188Z" fill="#0A0A0A"/>
<path d="M643.827 72.9814C614.399 72.9814 588.924 84.0044 571.356 105.591H570.477C557.301 82.6266 535.339 72.9814 508.986 72.9814C487.025 72.9814 465.064 83.0859 448.813 102.835H447.934V77.5744H378.977V302.168H447.934V189.642C447.934 154.735 463.307 137.282 484.829 137.282C508.108 137.282 516.014 158.41 516.014 187.804V302.168H584.532V189.642C584.532 154.735 600.344 137.282 620.548 137.282C643.827 137.282 651.733 158.41 651.733 187.804V302.168H720.252V171.27C720.252 100.539 689.067 72.9814 643.827 72.9814ZM902.033 79.4825V103.519H901.598C886.357 84.5672 865.89 74.86 842.81 74.86C787.507 74.86 745.267 123.396 745.267 192.733C745.267 262.533 787.071 309.682 845.859 309.682C871.116 309.682 891.147 299.975 905.082 281.023H905.953V305.522H970.401V79.4825H902.033ZM861.407 247.689C835.207 247.689 816.738 225.997 816.738 194.15C816.738 162.303 836.066 140.61 861.837 140.61C886.749 140.61 906.077 163.226 906.077 194.15C906.077 226.458 885.89 247.689 861.407 247.689ZM1141.55 72.9814C1118.14 72.9814 1096.03 84.923 1079.99 107.888H1079.56V77.5744H1011.5V302.168H1079.56V201.124C1079.56 172.023 1095.7 150.575 1127.15 150.149L1131 150.149C1134.47 150.168 1139.09 150.252 1143.72 150.602V73.4407C1143.29 72.9814 1142.42 72.9814 1141.55 72.9814ZM1298.2 72.9814C1343.29 72.9814 1376 96.4053 1376 167.596V302.168H1306.6V185.049C1306.6 148.305 1295.55 137.282 1272.12 137.282C1248.69 137.282 1232.78 154.276 1232.78 189.182V302.168H1163.37V77.5744H1232.78V104.673C1250.02 84.0044 1273.44 72.9814 1298.2 72.9814Z" fill="#0A0A0A"/>
</svg>
